<svg width="495" height="495" viewBox="0 0 495 495" fill="none" xmlns="http://www.w3.org/2000/svg">
<path d="M247.5 495H495V247.5H247.5V495ZM307.5 351.25H435V391.25H307.5V351.25Z" fill="#001B2F"/>
<path d="M0 247.5V495H247.5V247.5H0ZM187.5 426.25H60V386.25H187.5V426.25ZM187.5 356.25H60V316.25H187.5V356.25Z" fill="#00223A"/>
<path d="M247.5 0V247.5H495V0H247.5ZM402.186 182.97L371.25 152.034L342.056 181.228L313.771 152.944L342.966 123.749L312.03 92.813L340.315 64.529L371.251 95.465L400.445 66.271L428.73 94.555L399.535 123.75L430.471 154.686L402.186 182.97Z" fill="#00223A"/>
<path d="M428.729 94.555L400.444 66.271L371.25 95.465L340.314 64.53L312.029 92.814L342.965 123.75L313.771 152.945L342.056 181.229L371.25 152.035L402.186 182.97L430.471 154.686L399.535 123.75L428.729 94.555Z" fill="#FAFAFA"/>
<path d="M187.5 386.25H60V426.25H187.5V386.25Z" fill="#FAFAFA"/>
<path d="M187.5 316.25H60V356.25H187.5V316.25Z" fill="#FAFAFA"/>
<path d="M435 351.25H307.5V391.25H435V351.25Z" fill="#FAFAFA"/>
<path d="M247.5 0H0V247.5H247.5V0ZM187.5 143.75H143.75V185.038H103.75V143.75H60V103.75H103.75V62.462H143.75V103.75H187.5V143.75Z" fill="#001B2F"/>
<path d="M143.75 62.462H103.75V103.75H60V143.75H103.75V185.038H143.75V143.75H187.5V103.75H143.75V62.462Z" fill="#FAFAFA"/>
</svg>
